<svg width="16" height="16" viewBox="0 0 16 16" fill="none" xmlns="http://www.w3.org/2000/svg">
<path d="M8.00065 14.6673C7.63399 14.6673 7.28399 14.534 7.00065 14.2673C6.38732 13.7207 5.80065 13.1873 5.28732 12.7207L5.28065 12.714C4.10732 11.6673 3.07399 10.7407 2.34732 9.8207C1.54065 8.80065 1.16732 7.8273 1.16732 6.7673C1.16732 5.7407 1.52065 4.80065 2.18732 4.1007C2.86065 3.3873 3.77399 3.00065 4.76732 3.00065C5.50065 3.00065 6.16732 3.2273 6.75399 3.67397C7.04732 3.8973 7.30732 4.16732 7.53399 4.48065C7.64732 4.63398 7.81399 4.7273 8.00065 4.7273C8.18732 4.7273 8.35399 4.63398 8.46732 4.48065C8.69399 4.16732 8.95399 3.8973 9.24732 3.67397C9.83399 3.2273 10.5007 3.00065 11.234 3.00065C12.2273 3.00065 13.1407 3.3873 13.814 4.1007C14.4807 4.80065 14.834 5.7407 14.834 6.7673C14.834 7.8273 14.4607 8.80065 13.654 9.82065C12.9273 10.7407 11.894 11.6673 10.7213 12.714C10.2073 13.1807 9.62065 13.714 9.00732 14.2607C8.72399 14.534 8.37399 14.6673 8.00065 14.6673Z" fill="#ACB0B7"/>
</svg> 