<svg width="16" height="16" viewBox="0 0 16 16" fill="none" xmlns="http://www.w3.org/2000/svg">
<path d="M14.9198 7.68667C14.7865 7.50001 11.8598 3.33334 7.9998 3.33334C4.13981 3.33334 1.21314 7.50001 1.07981 7.68667C0.99981 7.79334 0.956476 7.92001 0.956476 8.05334C0.956476 8.18667 0.99981 8.31334 1.07981 8.42001C1.21314 8.60667 4.13981 12.7733 7.9998 12.7733C11.8598 12.7733 14.7865 8.60667 14.9198 8.42001C14.9998 8.31334 15.0432 8.18667 15.0432 8.05334C15.0432 7.92001 14.9998 7.79334 14.9198 7.68667ZM7.9998 11.5C5.23981 11.5 2.95981 8.69334 2.2798 7.78C2.95981 6.86001 5.23314 4.06001 7.9998 4.06001C10.7532 4.06001 13.0332 6.86001 13.7132 7.77334C13.0398 8.69334 10.7598 11.5 7.9998 11.5Z" fill="#ACB0B7"/>
<path d="M8.00033 5.33334C7.56118 5.33334 7.13348 5.47379 6.7779 5.73697C6.42232 6.00015 6.15319 6.37217 6.00669 6.8028C5.86019 7.23344 5.84313 7.70131 5.95796 8.14252C6.07279 8.58373 6.31433 8.97859 6.65066 9.27953C6.98699 9.58048 7.40308 9.77334 7.84429 9.83171C8.2855 9.89008 8.73148 9.80963 9.1223 9.60011C9.51312 9.3906 9.83149 9.06398 10.0416 8.66315C10.2518 8.26232 10.337 7.80755 10.2837 7.36001C10.2253 6.85936 10.0145 6.39159 9.68001 6.02667C9.34553 5.66175 8.89901 5.41985 8.40033 5.33334C8.26753 5.31645 8.13389 5.30809 8.00033 5.30667V5.33334ZM8.00033 9.01334C7.70751 9.01334 7.42231 8.9187 7.18518 8.74229C6.94805 8.56588 6.77205 8.31687 6.68366 8.03173C6.59527 7.7466 6.59873 7.44078 6.69357 7.15783C6.78841 6.87488 6.97014 6.62947 7.21218 6.45876C7.45422 6.28804 7.74331 6.19846 8.03752 6.20302C8.33174 6.20758 8.61724 6.30605 8.85304 6.48223C9.08884 6.65841 9.26274 6.90749 9.34876 7.19259C9.43477 7.47769 9.42842 7.78363 9.33033 8.06334C9.25437 8.28278 9.12432 8.47964 8.95267 8.6337C8.78102 8.78776 8.57371 8.89383 8.35033 8.94334C8.23509 8.98239 8.11588 9.00343 7.99567 9.00548L8.00033 9.01334Z" fill="#ACB0B7"/>
</svg> 