<?xml version="1.0" encoding="UTF-8"?>
<svg width="80" height="24" viewBox="0 0 80 24" fill="none" xmlns="http://www.w3.org/2000/svg">
  <rect width="80" height="24" rx="12" fill="url(#diamond_gradient)"/>
  <path d="M12.5 17V7H14.5V11.5H18.5V7H20.5V17H18.5V13.5H14.5V17H12.5Z" fill="white"/>
  <path d="M22 17V7H24V17H22Z" fill="white"/>
  <path d="M30.5 17.2C29.6 17.2 28.8 17 28.1 16.6C27.5 16.2 27 15.6 26.6 14.9C26.2 14.2 26 13.3 26 12.3C26 11.3 26.2 10.4 26.6 9.7C27 9 27.5 8.4 28.1 8C28.8 7.6 29.6 7.4 30.5 7.4C31.4 7.4 32.2 7.6 32.9 8C33.6 8.4 34.1 9 34.5 9.7C34.9 10.4 35.1 11.3 35.1 12.3C35.1 13.3 34.9 14.2 34.5 14.9C34.1 15.6 33.6 16.2 32.9 16.6C32.2 17 31.4 17.2 30.5 17.2ZM30.5 15.2C31.2 15.2 31.7 14.9 32.1 14.4C32.5 13.9 32.7 13.2 32.7 12.3C32.7 11.4 32.5 10.7 32.1 10.2C31.7 9.7 31.2 9.4 30.5 9.4C29.8 9.4 29.3 9.7 28.9 10.2C28.5 10.7 28.3 11.4 28.3 12.3C28.3 13.2 28.5 13.9 28.9 14.4C29.3 14.9 29.8 15.2 30.5 15.2Z" fill="white"/>
  <path d="M36.5 17V7H38.5V9H38.7C38.9 8.3 39.2 7.8 39.6 7.5C40 7.2 40.5 7 41.1 7C41.2 7 41.4 7 41.5 7C41.6 7 41.8 7.1 41.9 7.1V9.2C41.8 9.1 41.6 9.1 41.4 9.1C41.2 9.1 41 9 40.8 9C40.4 9 40 9.1 39.7 9.3C39.4 9.5 39.1 9.8 38.9 10.1C38.7 10.5 38.6 10.9 38.6 11.4V17H36.5Z" fill="white"/>
  <path d="M49 12.5V13.5H44V12.5H49Z" fill="white"/>
  <path d="M56 17H54V15.8H53.8C53.6 16.3 53.3 16.7 52.9 16.9C52.5 17.1 52 17.2 51.5 17.2C50.9 17.2 50.3 17.1 49.8 16.8C49.3 16.5 48.9 16.1 48.6 15.6C48.3 15.1 48.2 14.4 48.2 13.7V7H50.2V13.3C50.2 13.9 50.3 14.4 50.6 14.7C50.9 15 51.3 15.2 51.8 15.2C52.1 15.2 52.4 15.1 52.7 14.9C53 14.7 53.2 14.5 53.4 14.1C53.6 13.7 53.7 13.3 53.7 12.8V7H55.7V17H56Z" fill="white"/>
  <path d="M58 17V7H60V9H60.2C60.4 8.4 60.7 7.9 61.2 7.6C61.7 7.3 62.3 7.1 63 7.1C63.6 7.1 64.2 7.2 64.7 7.5C65.2 7.8 65.5 8.2 65.8 8.7C66 9.2 66.1 9.8 66.1 10.5V17H64.1V10.9C64.1 10.3 64 9.9 63.7 9.6C63.4 9.3 63 9.1 62.5 9.1C62.1 9.1 61.8 9.2 61.5 9.4C61.2 9.6 61 9.8 60.8 10.2C60.7 10.6 60.6 11 60.6 11.5V17H58Z" fill="white"/>
  <defs>
    <linearGradient id="diamond_gradient" x1="0" y1="0" x2="80" y2="24" gradientUnits="userSpaceOnUse">
      <stop offset="0" stop-color="#00BFFF"/>
      <stop offset="1" stop-color="#1E90FF"/>
    </linearGradient>
  </defs>
</svg>
