<?xml version="1.0" encoding="UTF-8"?>
<svg width="80" height="24" viewBox="0 0 80 24" fill="none" xmlns="http://www.w3.org/2000/svg">
  <rect width="80" height="24" rx="12" fill="url(#gold_gradient)"/>
  <path d="M16.5 7H19.5L22 17H19.8L19.3 15H16.7L16.2 17H14L16.5 7ZM18 9.5L17 13.5H19L18 9.5Z" fill="white"/>
  <path d="M29 11.5V17H27V7H29V9H29.2C29.4 8.4 29.7 7.9 30.2 7.6C30.7 7.3 31.3 7.1 32 7.1C32.6 7.1 33.2 7.2 33.7 7.5C34.2 7.8 34.5 8.2 34.8 8.7C35 9.2 35.1 9.8 35.1 10.5V17H33.1V10.9C33.1 10.3 33 9.9 32.7 9.6C32.4 9.3 32 9.1 31.5 9.1C31.1 9.1 30.8 9.2 30.5 9.4C30.2 9.6 30 9.8 29.8 10.2C29.7 10.6 29.6 11 29.6 11.5H29Z" fill="white"/>
  <path d="M42.5 17.2C41.6 17.2 40.8 17 40.1 16.6C39.5 16.2 39 15.6 38.6 14.9C38.2 14.2 38 13.3 38 12.3C38 11.3 38.2 10.4 38.6 9.7C39 9 39.5 8.4 40.1 8C40.8 7.6 41.6 7.4 42.5 7.4C43.4 7.4 44.2 7.6 44.9 8C45.6 8.4 46.1 9 46.5 9.7C46.9 10.4 47.1 11.3 47.1 12.3C47.1 13.3 46.9 14.2 46.5 14.9C46.1 15.6 45.6 16.2 44.9 16.6C44.2 17 43.4 17.2 42.5 17.2ZM42.5 15.2C43.2 15.2 43.7 14.9 44.1 14.4C44.5 13.9 44.7 13.2 44.7 12.3C44.7 11.4 44.5 10.7 44.1 10.2C43.7 9.7 43.2 9.4 42.5 9.4C41.8 9.4 41.3 9.7 40.9 10.2C40.5 10.7 40.3 11.4 40.3 12.3C40.3 13.2 40.5 13.9 40.9 14.4C41.3 14.9 41.8 15.2 42.5 15.2Z" fill="white"/>
  <path d="M48.5 17V7H50.5V17H48.5Z" fill="white"/>
  <path d="M52.5 17V7H54.5V15H58.5V17H52.5Z" fill="white"/>
  <path d="M66 12.5V13.5H61V12.5H66Z" fill="white"/>
  <path d="M73 17H71V15.8H70.8C70.6 16.3 70.3 16.7 69.9 16.9C69.5 17.1 69 17.2 68.5 17.2C67.9 17.2 67.3 17.1 66.8 16.8C66.3 16.5 65.9 16.1 65.6 15.6C65.3 15.1 65.2 14.4 65.2 13.7V7H67.2V13.3C67.2 13.9 67.3 14.4 67.6 14.7C67.9 15 68.3 15.2 68.8 15.2C69.1 15.2 69.4 15.1 69.7 14.9C70 14.7 70.2 14.5 70.4 14.1C70.6 13.7 70.7 13.3 70.7 12.8V7H72.7V17H73Z" fill="white"/>
  <defs>
    <linearGradient id="gold_gradient" x1="0" y1="0" x2="80" y2="24" gradientUnits="userSpaceOnUse">
      <stop offset="0" stop-color="#FFD700"/>
      <stop offset="1" stop-color="#FFA500"/>
    </linearGradient>
  </defs>
</svg>
