<?xml version="1.0" encoding="UTF-8"?>
<svg width="80" height="24" viewBox="0 0 80 24" fill="none" xmlns="http://www.w3.org/2000/svg">
  <rect width="80" height="24" rx="12" fill="url(#honor_gradient)"/>
  <path d="M10.5 17V7H12.5V11.5H16.5V7H18.5V17H16.5V13.5H12.5V17H10.5Z" fill="white"/>
  <path d="M25.5 17.2C24.6 17.2 23.8 17 23.1 16.6C22.5 16.2 22 15.6 21.6 14.9C21.2 14.2 21 13.3 21 12.3C21 11.3 21.2 10.4 21.6 9.7C22 9 22.5 8.4 23.1 8C23.8 7.6 24.6 7.4 25.5 7.4C26.4 7.4 27.2 7.6 27.9 8C28.6 8.4 29.1 9 29.5 9.7C29.9 10.4 30.1 11.3 30.1 12.3C30.1 13.3 29.9 14.2 29.5 14.9C29.1 15.6 28.6 16.2 27.9 16.6C27.2 17 26.4 17.2 25.5 17.2ZM25.5 15.2C26.2 15.2 26.7 14.9 27.1 14.4C27.5 13.9 27.7 13.2 27.7 12.3C27.7 11.4 27.5 10.7 27.1 10.2C26.7 9.7 26.2 9.4 25.5 9.4C24.8 9.4 24.3 9.7 23.9 10.2C23.5 10.7 23.3 11.4 23.3 12.3C23.3 13.2 23.5 13.9 23.9 14.4C24.3 14.9 24.8 15.2 25.5 15.2Z" fill="white"/>
  <path d="M31.5 17V7H33.5V9H33.7C33.9 8.3 34.2 7.8 34.6 7.5C35 7.2 35.5 7 36.1 7C36.2 7 36.4 7 36.5 7C36.6 7 36.8 7.1 36.9 7.1V9.2C36.8 9.1 36.6 9.1 36.4 9.1C36.2 9.1 36 9 35.8 9C35.4 9 35 9.1 34.7 9.3C34.4 9.5 34.1 9.8 33.9 10.1C33.7 10.5 33.6 10.9 33.6 11.4V17H31.5Z" fill="white"/>
  <path d="M44 12.5V13.5H39V12.5H44Z" fill="white"/>
  <path d="M51 17H49V15.8H48.8C48.6 16.3 48.3 16.7 47.9 16.9C47.5 17.1 47 17.2 46.5 17.2C45.9 17.2 45.3 17.1 44.8 16.8C44.3 16.5 43.9 16.1 43.6 15.6C43.3 15.1 43.2 14.4 43.2 13.7V7H45.2V13.3C45.2 13.9 45.3 14.4 45.6 14.7C45.9 15 46.3 15.2 46.8 15.2C47.1 15.2 47.4 15.1 47.7 14.9C48 14.7 48.2 14.5 48.4 14.1C48.6 13.7 48.7 13.3 48.7 12.8V7H50.7V17H51Z" fill="white"/>
  <path d="M53 17V7H55V9H55.2C55.4 8.4 55.7 7.9 56.2 7.6C56.7 7.3 57.3 7.1 58 7.1C58.6 7.1 59.2 7.2 59.7 7.5C60.2 7.8 60.5 8.2 60.8 8.7C61 9.2 61.1 9.8 61.1 10.5V17H59.1V10.9C59.1 10.3 59 9.9 58.7 9.6C58.4 9.3 58 9.1 57.5 9.1C57.1 9.1 56.8 9.2 56.5 9.4C56.2 9.6 56 9.8 55.8 10.2C55.7 10.6 55.6 11 55.6 11.5V17H53Z" fill="white"/>
  <path d="M63 17V7H65V17H63Z" fill="white"/>
  <path d="M67 17V7H69V15H73V17H67Z" fill="white"/>
  <defs>
    <linearGradient id="honor_gradient" x1="0" y1="0" x2="80" y2="24" gradientUnits="userSpaceOnUse">
      <stop offset="0" stop-color="#FF4500"/>
      <stop offset="1" stop-color="#FF0000"/>
    </linearGradient>
  </defs>
</svg>
