<svg width="345" height="433" viewBox="0 0 345 433" fill="none" xmlns="http://www.w3.org/2000/svg">
<g filter="url(#filter0_i_12_1551)">
<path d="M10.9867 421.945L10.723 420.978L9.79124 420.611C5.22517 418.809 2 414.359 2 409.16V23.8409C2 18.642 5.22508 14.1915 9.79102 12.3902L10.7228 12.0225L10.9865 11.0562C12.4111 5.83531 17.1893 2 22.8581 2H322.142C327.811 2 332.589 5.83533 334.014 11.0562L334.277 12.0226L335.209 12.3902C339.775 14.1916 343 18.6421 343 23.8409V409.16C343 414.359 339.775 418.809 335.209 420.611L334.277 420.978L334.013 421.945C332.589 427.165 327.811 431 322.142 431H22.8581C17.1895 431 12.4116 427.165 10.9867 421.945Z" stroke="#FBC57F" stroke-width="4"/>
</g>
<defs>
<filter id="filter0_i_12_1551" x="0" y="0" width="346" height="434" filterUnits="userSpaceOnUse" color-interpolation-filters="sRGB">
<feFlood flood-opacity="0" result="BackgroundImageFix"/>
<feBlend mode="normal" in="SourceGraphic" in2="BackgroundImageFix" result="shape"/>
<feColorMatrix in="SourceAlpha" type="matrix" values="0 0 0 0 0 0 0 0 0 0 0 0 0 0 0 0 0 0 127 0" result="hardAlpha"/>
<feOffset dx="1" dy="1"/>
<feGaussianBlur stdDeviation="0.5"/>
<feComposite in2="hardAlpha" operator="arithmetic" k2="-1" k3="1"/>
<feColorMatrix type="matrix" values="0 0 0 0 1 0 0 0 0 1 0 0 0 0 1 0 0 0 0.48 0"/>
<feBlend mode="normal" in2="shape" result="effect1_innerShadow_12_1551"/>
</filter>
</defs>
</svg>
