<svg width="345" height="431" viewBox="0 0 345 431" fill="none" xmlns="http://www.w3.org/2000/svg">
<g filter="url(#filter0_i_12_1550)">
<path d="M9.05728 420.471C3.75312 418.379 0 413.208 0 407.16V23.8409C0 17.7933 3.753 12.6222 9.05704 10.5297C10.713 4.46114 16.2645 0 22.8581 0H322.142C328.736 0 334.287 4.46116 335.943 10.5298C341.247 12.6223 345 17.7934 345 23.8409V407.16C345 413.208 341.247 418.379 335.943 420.471C334.287 426.539 328.735 431 322.142 431H22.8581C16.2649 431 10.7135 426.539 9.05728 420.471Z" fill="#FFE5D4"/>
</g>
<defs>
<filter id="filter0_i_12_1550" x="0" y="0" width="345" height="431" filterUnits="userSpaceOnUse" color-interpolation-filters="sRGB">
<feFlood flood-opacity="0" result="BackgroundImageFix"/>
<feBlend mode="normal" in="SourceGraphic" in2="BackgroundImageFix" result="shape"/>
<feColorMatrix in="SourceAlpha" type="matrix" values="0 0 0 0 0 0 0 0 0 0 0 0 0 0 0 0 0 0 127 0" result="hardAlpha"/>
<feOffset/>
<feGaussianBlur stdDeviation="10"/>
<feComposite in2="hardAlpha" operator="arithmetic" k2="-1" k3="1"/>
<feColorMatrix type="matrix" values="0 0 0 0 0.825 0 0 0 0 0.438691 0 0 0 0 0 0 0 0 0.47 0"/>
<feBlend mode="multiply" in2="shape" result="effect1_innerShadow_12_1550"/>
</filter>
</defs>
</svg>
